<svg xmlns="http://www.w3.org/2000/svg" width="23.941" height="24" viewBox="0 0 23.941 24"><path d="M12.031,0a11.987,11.987,0,0,0-4.37,23.149A11.524,11.524,0,0,1,7.7,19.71c.219-.937,1.406-5.957,1.406-5.957a4.338,4.338,0,0,1-.359-1.781c0-1.663.967-2.911,2.168-2.911a1.507,1.507,0,0,1,1.518,1.688,24.025,24.025,0,0,1-.992,3.992,1.739,1.739,0,0,0,1.775,2.165c2.128,0,3.768-2.245,3.768-5.487A4.731,4.731,0,0,0,11.978,6.55a5.187,5.187,0,0,0-5.409,5.2,4.668,4.668,0,0,0,.889,2.741.366.366,0,0,1,.085.345c-.09.375-.293,1.2-.334,1.363-.053.225-.172.271-.4.165-1.5-.69-2.433-2.878-2.433-4.646,0-3.776,2.748-7.252,7.92-7.252,4.158,0,7.392,2.967,7.392,6.923,0,4.135-2.607,7.462-6.233,7.462A3.237,3.237,0,0,1,10.7,17.471l-.749,2.848a13.059,13.059,0,0,1-1.5,3.146A11.988,11.988,0,1,0,12,.026Z" transform="translate(-0.044)" fill="#7c183e"/></svg>