<svg xmlns="http://www.w3.org/2000/svg" width="23.998" height="23.999" viewBox="0 0 23.998 23.999"><path d="M13.98,7.341A5.823,5.823,0,0,0,6.939,8.878l2.588,2.588a.749.749,0,1,1-1.059,1.059L6.114,10.172l-6,12.314a1.063,1.063,0,0,0,0,.923,1.054,1.054,0,0,0,1.406.483l6.263-3.056L5.472,18.53a.744.744,0,0,1,0-1.059.753.753,0,0,1,1.059,0L9.2,20.143l4.781-2.334a5.823,5.823,0,0,0,0-10.467ZM18.3,5.7A4.659,4.659,0,0,0,16.877,0a4.643,4.643,0,0,0-.37,7.12l.375.375A4.643,4.643,0,0,0,24,7.125,4.659,4.659,0,0,0,18.3,5.7Z" transform="translate(-0.003)" fill="#7c183e"/></svg>