<svg xmlns="http://www.w3.org/2000/svg" width="23.083" height="23.083" viewBox="0 0 23.083 23.083"><path d="M196.238,3.38a11.541,11.541,0,1,0,16.322,0,11.541,11.541,0,0,0-16.322,0m4.617,13.675a.557.557,0,1,1-.788.788,6.134,6.134,0,0,1,0-8.665l2.988-2.988h-2.593a.557.557,0,0,1,0-1.114H204.4a.557.557,0,0,1,.557.557V9.572a.557.557,0,1,1-1.114,0V6.978l-2.988,2.988a5.018,5.018,0,0,0,0,7.089m7.483-.163a.557.557,0,1,1,0,1.114H204.4a.558.558,0,0,1-.557-.557V13.51a.557.557,0,1,1,1.114,0V16.1l2.988-2.988a5.018,5.018,0,0,0,0-7.089.557.557,0,0,1,0-.788h0a.557.557,0,0,1,.788,0,6.133,6.133,0,0,1,0,8.664l-2.988,2.988Z" transform="translate(-192.858 0)" fill="#7c183e"/></svg>