<svg xmlns="http://www.w3.org/2000/svg" width="35.146" height="33.426" viewBox="0 0 35.146 33.426"><g transform="translate(-41.851 2.26)"><path d="M33.419,13.889,22.761,12.341,17.995,2.683l-4.766,9.658L2.571,13.889l7.712,7.517L8.462,32.022l9.533-5.012,9.533,5.012L25.707,21.407l7.712-7.517Z" transform="translate(41.429 -2.683)" fill="#fefbf5"/><path d="M17.995.423l5.431,11,12.143,1.764-8.787,8.565L28.856,33.85,17.995,28.14,7.134,33.85,9.208,21.756.422,13.191l12.143-1.764ZM31.27,14.588,22.1,13.255l-4.1-8.312-4.1,8.312L4.72,14.588l6.638,6.47L9.79,30.194l8.2-4.313,8.2,4.313-1.567-9.136Z" transform="translate(41.429 -2.683)" fill="#e4b05c"/></g></svg>