<svg xmlns="http://www.w3.org/2000/svg" viewBox="0 0 438.66 90.19"><g id="Layer_2" data-name="Layer 2"><g id="Layer_1-2" data-name="Layer 1"><path d="M206.07,13.21a45.09,45.09,0,1,0,63.77,0A45.09,45.09,0,0,0,206.07,13.21Zm18,53.43A2.17,2.17,0,1,1,221,69.72a24,24,0,0,1,0-33.86L232.7,24.19H222.57a2.18,2.18,0,1,1,0-4.35H238A2.17,2.17,0,0,1,240.13,22V37.4a2.18,2.18,0,1,1-4.35,0V27.27L224.1,38.94A19.62,19.62,0,0,0,224.1,66.64ZM253.34,66a2.18,2.18,0,1,1,0,4.35H238a2.18,2.18,0,0,1-2.18-2.18V52.79a2.18,2.18,0,1,1,4.35,0V62.92L251.8,51.25a19.6,19.6,0,0,0,0-27.7,2.17,2.17,0,0,1,0-3.07h0a2.17,2.17,0,0,1,3.07,0,24,24,0,0,1,0,33.85L243.21,66Z" style="fill:#fff"/><path d="M22.2,44.23a9.8,9.8,0,0,0,1.41-5.44,8.67,8.67,0,0,0-3.07-7.11q-3.06-2.5-8.7-2.51H0V61H6.56V49.36h5.23l6,11.66h7v-.3l-6.89-13A9.64,9.64,0,0,0,22.2,44.23Zm-6.51-1.44a5.43,5.43,0,0,1-3.83,1.26H6.56V34.48h5.28a5.31,5.31,0,0,1,3.92,1.29A4.82,4.82,0,0,1,17,39.32,4.52,4.52,0,0,1,15.69,42.79Z" style="fill:#fff"/><polygon points="35.16 47.22 47.76 47.22 47.76 42.08 35.16 42.08 35.16 34.48 49.91 34.48 49.91 29.17 28.6 29.17 28.6 61.02 49.95 61.02 49.95 55.75 35.16 55.75 35.16 47.22" style="fill:#fff"/><polygon points="65.57 53.13 58.4 29.17 51.11 29.17 62.16 61.02 69.01 61.02 80.1 29.17 72.79 29.17 65.57 53.13" style="fill:#fff"/><polygon points="89.66 47.22 102.26 47.22 102.26 42.08 89.66 42.08 89.66 34.48 104.41 34.48 104.41 29.17 83.1 29.17 83.1 61.02 104.45 61.02 104.45 55.75 89.66 55.75 89.66 47.22" style="fill:#fff"/><path d="M130.5,44.23a9.8,9.8,0,0,0,1.41-5.44,8.69,8.69,0,0,0-3.06-7.11q-3.07-2.5-8.71-2.51H108.3V61h6.57V49.36h5.23l6,11.66h7v-.3l-6.89-13A9.64,9.64,0,0,0,130.5,44.23ZM124,42.79a5.41,5.41,0,0,1-3.83,1.26h-5.29V34.48h5.27a5.35,5.35,0,0,1,3.93,1.29,4.86,4.86,0,0,1,1.28,3.55A4.53,4.53,0,0,1,124,42.79Z" style="fill:#fff"/><path d="M144.45,35a6,6,0,0,1,3.74-1,5.66,5.66,0,0,1,3.87,1.21,4.31,4.31,0,0,1,1.38,3.41H160a9.16,9.16,0,0,0-1.47-5.12A9.65,9.65,0,0,0,154.38,30a14.24,14.24,0,0,0-6.08-1.24,15.74,15.74,0,0,0-6.12,1.14A9.53,9.53,0,0,0,138,33a7.68,7.68,0,0,0-1.45,4.6q0,5,5.42,7.9a33.32,33.32,0,0,0,5.41,2.18,17.39,17.39,0,0,1,4.72,2.1,3.37,3.37,0,0,1,1.32,2.86,3.08,3.08,0,0,1-1.32,2.65,6.07,6.07,0,0,1-3.65,1q-6.3,0-6.3-5.28h-6.59a9.43,9.43,0,0,0,1.59,5.43,10.61,10.61,0,0,0,4.61,3.69,16.35,16.35,0,0,0,6.69,1.34q5.3,0,8.42-2.35A7.66,7.66,0,0,0,160,52.62a8.3,8.3,0,0,0-2.56-6.21q-2.55-2.49-8.16-4.18a17.45,17.45,0,0,1-4.6-2,3.07,3.07,0,0,1-1.57-2.6A3.2,3.2,0,0,1,144.45,35Z" style="fill:#fff"/><polygon points="171.01 47.22 183.61 47.22 183.61 42.08 171.01 42.08 171.01 34.48 185.75 34.48 185.75 29.17 164.44 29.17 164.44 61.02 185.8 61.02 185.8 55.75 171.01 55.75 171.01 47.22" style="fill:#fff"/><path d="M314.42,44.23a9.8,9.8,0,0,0,1.41-5.44,8.69,8.69,0,0,0-3.06-7.11q-3.07-2.5-8.71-2.51H292.22V61h6.57V49.36H304L310,61h7v-.3l-6.89-13A9.64,9.64,0,0,0,314.42,44.23Zm-6.51-1.44a5.43,5.43,0,0,1-3.83,1.26h-5.29V34.48h5.27A5.35,5.35,0,0,1,308,35.77a4.86,4.86,0,0,1,1.28,3.55A4.53,4.53,0,0,1,307.91,42.79Z" style="fill:#fff"/><polygon points="327.38 47.22 339.98 47.22 339.98 42.08 327.38 42.08 327.38 34.48 342.13 34.48 342.13 29.17 320.82 29.17 320.82 61.02 342.17 61.02 342.17 55.75 327.38 55.75 327.38 47.22" style="fill:#fff"/><path d="M353.38,36.46a5.61,5.61,0,0,1,4.92-2.35,6.37,6.37,0,0,1,4.49,1.39A6.64,6.64,0,0,1,364.51,40h6.56a12.11,12.11,0,0,0-3.89-8.3,14.47,14.47,0,0,0-15.87-1.08A12.15,12.15,0,0,0,346.68,36a19.11,19.11,0,0,0-1.62,8.1V46q0,7.2,3.51,11.33a12,12,0,0,0,9.64,4.12,13.31,13.31,0,0,0,9-3,11.26,11.26,0,0,0,3.8-8.1h-6.56a6.28,6.28,0,0,1-1.72,4.3,6.46,6.46,0,0,1-4.54,1.39,5.46,5.46,0,0,1-4.93-2.38q-1.57-2.38-1.57-7.55V43.76Q351.76,38.81,353.38,36.46Z" style="fill:#fff"/><rect x="375.76" y="29.17" width="6.56" height="31.86" style="fill:#fff"/><path d="M407.14,30.48a14.43,14.43,0,0,0-6.31-1.31H388.4V61H395V49.8h5.75q5.67,0,8.87-2.7a9.15,9.15,0,0,0,3.21-7.39,10.38,10.38,0,0,0-1.47-5.5A9.71,9.71,0,0,0,407.14,30.48ZM404.8,43.26a5.79,5.79,0,0,1-4,1.22H395v-10h6A5.17,5.17,0,0,1,404.79,36a5.26,5.26,0,0,1,1.38,3.79A4.48,4.48,0,0,1,404.8,43.26Z" style="fill:#fff"/><polygon points="423.87 55.75 423.87 47.22 436.47 47.22 436.47 42.08 423.87 42.08 423.87 34.48 438.62 34.48 438.62 29.17 417.31 29.17 417.31 61.02 438.66 61.02 438.66 55.75 423.87 55.75" style="fill:#fff"/></g></g></svg>